<svg xmlns="http://www.w3.org/2000/svg" viewBox="0 0 640 150" width="640" height="150" role="img" aria-label="Spyglass">
  <!-- spyglass icon -->
  <g>
    <g fill="#0b6bcb">
      <path d="M128 18 L132.5 33 L147 37.5 L132.5 42 L128 57 L123.5 42 L109 37.5 L123.5 33 Z"/>
      <circle cx="151" cy="20" r="3"/>
    </g>
    <g transform="rotate(-35 78 92)">
      <rect x="14" y="83" width="14" height="18" rx="4" fill="#0b3d75"/>
      <rect x="28" y="81" width="6" height="22" rx="2.5" fill="#1f2933"/>
      <rect x="34" y="79" width="36" height="26" rx="5" fill="#0b6bcb"/>
      <rect x="70" y="76" width="6" height="32" rx="2.5" fill="#1f2933"/>
      <rect x="76" y="74" width="40" height="36" rx="6" fill="#0b6bcb"/>
      <rect x="116" y="70" width="12" height="44" rx="5" fill="#0b3d75"/>
      <rect x="125" y="76" width="4" height="14" rx="2" fill="#9cc4ee"/>
    </g>
  </g>
  <!-- wordmark -->
  <text x="185" y="88" font-family="'Segoe UI', system-ui, -apple-system, sans-serif"
        font-size="58" font-weight="650" letter-spacing="0.5" fill="#0b3d75">Spy<tspan fill="#0b6bcb">glass</tspan></text>
  <text x="187" y="120" font-family="'Segoe UI', system-ui, -apple-system, sans-serif"
        font-size="19" letter-spacing="0.3" fill="#62707d">read-only audits for Entra service principals</text>
</svg>
